<svg xmlns="http://www.w3.org/2000/svg" version="1.1" xmlns:xlink="http://www.w3.org/1999/xlink" xmlns:svgjs="http://svgjs.dev/svgjs" width="1500" height="1687" viewBox="0 0 1500 1687"><g transform="matrix(1,0,0,1,0.00011015625000254659,0)"><svg viewBox="0 0 320 360" data-background-color="#ffffff" preserveAspectRatio="xMidYMid meet" height="1687" width="1500" xmlns="http://www.w3.org/2000/svg" xmlns:xlink="http://www.w3.org/1999/xlink"><g id="tight-bounds" transform="matrix(1,0,0,1,0.000023499999997511622,0)"><svg viewBox="0 0 320 360" height="360" width="320"><g><svg></svg></g><g><svg viewBox="0 0 320 360" height="360" width="320"><g><path transform="translate(-74.99272,-51.79039) scale(4.65793,4.65793)" d="M20.6 59.9l0.8 1-0.4-1.3c-0.1-0.6-0.8 0.1-0.4 0.3M21.5 59.3c0.3 0.5 0.6 1 0.6 1.5 0 0.7 0.6 1 1.1 1.2-0.7-0.8-1.1-3-1.7-2.7M59.9 16.9c1.7 0 3.3-0.2 5.1 0.2 4.4 1.1 8.1 3.3 10.6 6.4l7 11.2c0.3 2.8 0.9 5.9 0.8 9.3 0.7 0 0.6-1 1.4-1.2-0.8 2-1.2 4.5-1.4 7.4-0.5-1.6 0-4 0.1-5.3-0.7 1.1-1.1 0.3-1.1-0.2 0.1-0.8-0.3-0.7-0.6-1-1.1-1-1.8-2.1-2.6-3.8 0.5-1.3 0.6-3.2-1-4.2-0.5-0.3-1.1-0.8-1.4-1.6-0.4-1.1-1.1-2.4-0.9-4.1 0.1-0.5-1.5 1.1-2.4 0.4-3.9-2.7-7.8-5.8-12.5-8.4-2.5 0-4.3-0.9-5.2-2-0.8-1-0.2-2.3 1-2.4 0.7 0 1.5-0.2 2.1 0.2 0.1-0.4 0.5-0.9 1-0.9M50 14.6l0.2 0.1c1 0.2 1.5 1.6 2.6 1.1 0 0.7 0.1 1.4-0.1 1.9-0.3 0.8-1.2 0.8-1.9 0.8-6.7-0.4-10.6 2.4-14.7 4.8-1.1 0.7-2.3 1.2-3.2 2.1-4.3 4-9 7.7-10.1 15.1l-0.9 8.2c-0.1 0.9-1.1 1.8-0.9 2.9l0.7 4.9c-0.7-0.7-1.1 0.2-0.9 0.6 0.1 0.3 0.5 1.3 1.1 0.4 0.8 1.5 1.6 4.4 2.7 5.7 3.4 4 7.8 7.6 11.4 11.2 0.9-0.2 1.6-0.2 1.8-0.8 0.3 0.6-0.3 1.2-0.8 1.3 1.6 1 3.4 1.9 5.8 2.1 3.1 0.2 6 0.7 8.7 1.4 1.4-0.4 2.8-0.6 4.3-0.7 0.5 0 0.8-0.8 1.4-1l0.1-1c0.6 0.9 0.5-0.3 0.1-0.9 0.7 0.6 0.9 1.1 1.2 1.5 0-0.3 0.8-1.4 0.8-0.1l0.2-1.3c0.3-0.2 0.4 1.1 0.7 0.2 0.3-0.9 0.9-0.2 1.5-0.5-0.2 0.4-0.1 1.2 0.6 0.7l0.8-0.7c0.5 1.2 1.3 0.7 1.7 0.5 4.4-2.8 8.8-6.1 13-9.4l-0.1 1.3 0.5-1.6c0.5 0.5 0.9 0.1 1.1-0.2 0.6-1 1.4-2 2.7-2.9-1.6 4.3-3.5 7.7-5.9 10.5l-1 1.2c0 0.7-0.2 1.6-1 1.7-0.4 0.1-1.2-0.2-1.8 0.4-0.3 0.4 0.7 1.2-0.1 0.6-0.7-0.5-1.4 0-2.2 0.2-0.6 0.2 0.4 0.8 0.6 1.2 0.2 0.4 0.4 0.8 0.3 1.3l-1.1-1.2c-1.3 0.7-2.1 2-3.2 3-0.5 0.4-0.3 1.1-0.3 1.7-0.7 0-1.5-0.2-1.9 0.2-0.3 0.4-0.2 1-0.2 1.6-1-0.1-1.1-1.6-2-1.3-0.9 0.2-1.9 0.3-2.7 0.8 0.6 1.2-1 0.5-0.8 0.7-1.5-0.9-2.8-1.6-4.4-1-3.4-1.1-7.6-0.6-10.7-0.2 0-0.5 0.1-1-0.1-1.1-0.2 0.5-0.8 0.3-0.7 0.3-1.9-1.3-3.8-2.1-5.8-3.2-1.8 0.2-3.5-0.7-4-1.2-1.4-1.3-3-0.6-4.3-0.9-2.8-0.7-3.8-3.6-4.1-5.6-0.2-1-1-1.4-1.3-1.3-1.3-4.2-3.3-8-4.9-11.9-0.4-1-0.3-2-0.3-3.1 0.5 0.2 1 0.1 0.9-0.6-0.5-3.3-1.7-5.8-3-8.2 0.7-3.4 0.8-7.4 2.4-10.4 1.4-2.7 4-4.1 5.8-6.4 0.6-0.8 0.6-1.9 1.2-2.6 2-2 4-4.1 6.2-5.9 1-0.8 2.2 0 3.7-0.3 0.5-1.8 2.5-3.4 4.4-2.9 0.8 0.2 2.4-1.9 2.9-2.1 0.8-0.3 0.4 0.8 0.4 1.5 1.9-1.5 4.5-2.3 6.9-3.2" fill="#729343" fill-rule="nonzero" stroke="none" stroke-width="1" stroke-linecap="butt" stroke-linejoin="miter" stroke-miterlimit="10" stroke-dasharray="" stroke-dashoffset="0" font-family="none" font-weight="none" font-size="none" text-anchor="none" style="mix-blend-mode: normal" data-fill-palette-color="tertiary"></path></g><g transform="matrix(1,0,0,1,81.49842776205475,90)"><svg viewBox="0 0 157.0031444758905 180" height="180" width="157.0031444758905"><g><svg viewBox="0 0 157.0031444758905 180" height="180" width="157.0031444758905"><g><svg viewBox="0 0 192 220.12297979998138" height="180" width="157.0031444758905"><g transform="matrix(1,0,0,1,0,120.98925019170835)"><svg viewBox="0 0 192 99.13372960827303" height="99.13372960827303" width="192"><g id="textblocktransform"><svg viewBox="0 0 192 99.13372960827303" height="99.13372960827303" width="192" id="textblock"><g><svg viewBox="0 0 192 74.0923076923077" height="74.0923076923077" width="192"><g transform="matrix(1,0,0,1,0,0)"><svg width="192" viewBox="0.75 -45.15 116.99 45.15" height="74.0923076923077" data-palette-color="#729343"><path d="M9.1 0L0.75 0 4.9-42.95 19.45-42.95 23.55 0 15.4 0 14.8-6.95 9.6-6.95 9.1 0ZM11.85-35.65L10.25-13.8 14.15-13.8 12.25-35.65 11.85-35.65ZM34.7-39.05L25.95-39.05 25.95-45.15 34.7-45.15 34.7-39.05ZM34.7 0L25.95 0 25.95-36.6 34.7-36.6 34.7 0ZM38.15 0L38.15-36.6 46.9-36.6 46.9-32.55Q47.55-34.7 49.17-35.88 50.8-37.05 53.2-37.05L53.2-37.05 53.2-29.75Q51.35-29.75 49.12-29.23 46.9-28.7 46.9-28L46.9-28 46.9 0 38.15 0ZM55.49 0L55.49-42.95 67.14-42.95Q71.84-42.95 73.97-40.65 76.09-38.35 76.09-33.15L76.09-33.15 76.09-31.25Q76.09-25.1 71.69-23.9L71.69-23.9Q74.39-23.2 75.49-20.65 76.59-18.1 76.59-13.9L76.59-13.9Q76.59-7.05 74.54-3.53 72.49 0 67.14 0L67.14 0 55.49 0ZM63.89-26.8L65.64-26.8Q66.74-26.8 67.14-27.63 67.54-28.45 67.54-29.95L67.54-29.95 67.54-34.25Q67.54-36.35 65.69-36.35L65.69-36.35 63.89-36.35 63.89-26.8ZM64.74-7.55Q68.09-7.55 68.09-10.75L68.09-10.75 68.09-16.1Q68.09-18.05 67.52-19.05 66.94-20.05 65.49-20.05L65.49-20.05 63.89-20.05 63.89-7.6 64.74-7.55ZM79.29 0L79.29-36.6 88.04-36.6 88.04-32.55Q88.69-34.7 90.32-35.88 91.94-37.05 94.34-37.05L94.34-37.05 94.34-29.75Q92.49-29.75 90.27-29.23 88.04-28.7 88.04-28L88.04-28 88.04 0 79.29 0ZM96.64 0L96.64-42.95 108.29-42.95Q112.99-42.95 115.11-40.65 117.24-38.35 117.24-33.15L117.24-33.15 117.24-31.25Q117.24-25.1 112.84-23.9L112.84-23.9Q115.54-23.2 116.64-20.65 117.74-18.1 117.74-13.9L117.74-13.9Q117.74-7.05 115.69-3.53 113.64 0 108.29 0L108.29 0 96.64 0ZM105.04-26.8L106.79-26.8Q107.89-26.8 108.29-27.63 108.69-28.45 108.69-29.95L108.69-29.95 108.69-34.25Q108.69-36.35 106.84-36.35L106.84-36.35 105.04-36.35 105.04-26.8ZM105.89-7.55Q109.24-7.55 109.24-10.75L109.24-10.75 109.24-16.1Q109.24-18.05 108.66-19.05 108.09-20.05 106.64-20.05L106.64-20.05 105.04-20.05 105.04-7.6 105.89-7.55Z" opacity="1" transform="matrix(1,0,0,1,0,0)" fill="#729343" class="wordmark-text-0" data-fill-palette-color="primary" id="text-0"></path></svg></g></svg></g><g transform="matrix(1,0,0,1,0,84.9041536)"><svg viewBox="0 0 192 14.229576008273012" height="14.229576008273012" width="192"><g transform="matrix(1,0,0,1,0,0)"><svg width="192" viewBox="4 -33.2 580.15 43" height="14.229576008273012" data-palette-color="#729343"><path d="M10.6 0L4 0 4-29.4 10.6-29.4 10.6-17.2 30.2-17.2 30.2-29.4 36.8-29.4 36.8 0 30.2 0 30.2-12.4 10.6-12.4 10.6 0ZM63.7 0L49.9 0Q46.55 0 44.92-1.35 43.3-2.7 43.3-5.75L43.3-5.75 43.3-16Q43.3-16.75 43.42-17.82 43.55-18.9 44.12-19.95 44.7-21 46.07-21.7 47.45-22.4 49.9-22.4L49.9-22.4 63.7-22.4Q66.2-22.4 67.55-21.7 68.9-21 69.47-19.95 70.05-18.9 70.17-17.82 70.3-16.75 70.3-16L70.3-16 70.3-6.4Q70.3-5.5 70.17-4.4 70.05-3.3 69.45-2.3 68.85-1.3 67.5-0.65 66.15 0 63.7 0L63.7 0ZM51.8-4.3L51.8-4.3 61.8-4.3Q64.25-4.3 64.25-6.3L64.25-6.3 64.25-16.1Q64.25-18.1 61.8-18.1L61.8-18.1 51.8-18.1Q49.4-18.1 49.4-16.1L49.4-16.1 49.4-6.3Q49.4-4.3 51.8-4.3ZM81.9 0L75.8 0 75.8-22.4 79.9-22.4 81.15-21.8Q82.6-22.05 84.7-22.23 86.8-22.4 89.7-22.4L89.7-22.4 92.2-22.4Q93.65-22.4 95-22.03 96.35-21.65 97-20.95L97-20.95Q98.3-21.6 100.6-22 102.9-22.4 106.6-22.4L106.6-22.4 109.1-22.4Q111.6-22.4 112.95-21.7 114.3-21 114.87-19.95 115.45-18.9 115.57-17.82 115.7-16.75 115.7-16L115.7-16 115.7 0 109.6 0 109.6-16.1Q109.6-18.1 107.2-18.1L107.2-18.1 100.2-18.1Q99.4-18.1 99.1-17.9 98.8-17.7 98.8-17L98.8-17 98.8 0 92.7 0 92.7-16.1Q92.7-18.1 90.3-18.1L90.3-18.1 83.4-18.1Q82.45-18.1 82.17-17.93 81.9-17.75 81.9-17L81.9-17 81.9 0ZM137.59 0L127.54 0Q125.04 0 123.69-0.65 122.34-1.3 121.77-2.3 121.19-3.3 121.07-4.4 120.94-5.5 120.94-6.4L120.94-6.4 120.94-16Q120.94-16.75 121.07-17.82 121.19-18.9 121.77-19.95 122.34-21 123.72-21.7 125.09-22.4 127.54-22.4L127.54-22.4 138.29-22.4Q141.59-22.4 143.47-21.78 145.34-21.15 146.12-19.75 146.89-18.35 146.89-16L146.89-16 146.89-8.6 138.14-8.6Q133.64-8.6 130.82-8.8 127.99-9 127.04-9.05L127.04-9.05 127.04-6.3Q126.99-4.3 129.44-4.3L129.44-4.3 131.99-4.3Q134.69-4.3 137.27-4.38 139.84-4.45 141.99-4.58 144.14-4.7 145.44-4.8L145.44-4.8 147.44-1.55Q147.44 0 137.59 0L137.59 0ZM127.04-16.1L127.04-12.9 140.79-12.9 140.79-16.1Q140.79-17.1 140.57-17.5 140.34-17.9 139.24-18 138.14-18.1 135.49-18.1L135.49-18.1 129.44-18.1Q127.04-18.1 127.04-16.1L127.04-16.1ZM172.39 0L169.89 0Q166.09 0 164.39-1.78 162.69-3.55 162.69-6.65L162.69-6.65Q162.69-9.9 164.46-11.65 166.24-13.4 169.89-13.4L169.89-13.4 172.44-13.4Q176.19-13.4 179.19-13.2 182.19-13 184.14-12.8L184.14-12.8 184.14-16.1Q184.14-16.55 184.04-17.03 183.94-17.5 183.44-17.8 182.94-18.1 181.74-18.1L181.74-18.1 179.24-18.1Q173.79-18.1 170.14-17.93 166.49-17.75 165.19-17.6L165.19-17.6 164.64-21.4Q164.64-22.1 168.44-22.25 172.24-22.4 181.14-22.4L181.14-22.4 183.64-22.4Q186.14-22.4 187.49-21.7 188.84-21 189.41-19.95 189.99-18.9 190.11-17.82 190.24-16.75 190.24-16L190.24-16 190.24 0 186.14 0 184.19-1Q182.09-0.65 179.14-0.33 176.19 0 172.39 0L172.39 0ZM171.19-4.3L171.19-4.3 182.64-4.3Q183.74-4.3 183.94-4.5 184.14-4.7 184.14-5.75L184.14-5.75 184.14-9.6 171.19-9.6Q169.84-9.6 169.31-8.95 168.79-8.3 168.79-6.9L168.79-6.9Q168.79-5.5 169.39-4.9 169.99-4.3 171.19-4.3ZM209.54 0L201.54 0 193.49-22.4 200.49-22.4 204.54-9.7 205.84-5.25 206.34-5.25 207.09-9.2 210.54-22.4 218.54-22.4 222.19-9.2 222.89-5.25 223.39-5.25 224.74-9.8 228.54-22.4 235.54-22.4 234.74-19.35 227.54 0 219.54 0 215.39-13.75 214.89-16.1 214.39-16.1 213.79-13.75 209.54 0ZM246.98 0L244.48 0Q240.68 0 238.98-1.78 237.28-3.55 237.28-6.65L237.28-6.65Q237.28-9.9 239.06-11.65 240.83-13.4 244.48-13.4L244.48-13.4 247.03-13.4Q250.78-13.4 253.78-13.2 256.78-13 258.73-12.8L258.73-12.8 258.73-16.1Q258.73-16.55 258.63-17.03 258.53-17.5 258.03-17.8 257.53-18.1 256.33-18.1L256.33-18.1 253.83-18.1Q248.38-18.1 244.73-17.93 241.08-17.75 239.78-17.6L239.78-17.6 239.23-21.4Q239.23-22.1 243.03-22.25 246.83-22.4 255.73-22.4L255.73-22.4 258.23-22.4Q260.73-22.4 262.08-21.7 263.43-21 264.01-19.95 264.58-18.9 264.71-17.82 264.83-16.75 264.83-16L264.83-16 264.83 0 260.73 0 258.78-1Q256.68-0.65 253.73-0.33 250.78 0 246.98 0L246.98 0ZM245.78-4.3L245.78-4.3 257.23-4.3Q258.33-4.3 258.53-4.5 258.73-4.7 258.73-5.75L258.73-5.75 258.73-9.6 245.78-9.6Q244.43-9.6 243.91-8.95 243.38-8.3 243.38-6.9L243.38-6.9Q243.38-5.5 243.98-4.9 244.58-4.3 245.78-4.3ZM274.03 9.8L272.68 9.8Q270.28 9.8 268.28 9.25 266.28 8.7 265.58 8.25L265.58 8.25 267.08 3.75Q267.93 4.1 269.51 4.58 271.08 5.05 273.08 5.05L273.08 5.05 273.63 5.05Q275.93 5.05 277.71 3.68 279.48 2.3 280.43 0L280.43 0 277.93 0 268.13-22.4 275.13-22.4 280.88-8.6 282.18-5 282.68-5 283.98-8.6 289.83-22.4 296.63-22.4 295.83-19.35Q294.88-17.4 293.66-14.88 292.43-12.35 291.13-9.65 289.83-6.95 288.61-4.45 287.38-1.95 286.43 0L286.43 0Q284.98 3 283.26 5.2 281.53 7.4 279.31 8.6 277.08 9.8 274.03 9.8L274.03 9.8ZM318.33 0L312.23 0 312.23-18.1 309.13-18.1 309.13-22.35 312.23-22.35 312.23-26.8Q312.23-28.5 312.9-29.95 313.58-31.4 315.15-32.3 316.73-33.2 319.33-33.2L319.33-33.2 321.83-33.2Q327.83-33.2 330.45-32.65 333.08-32.1 333.08-31.7L333.08-31.7 331.58-27.9Q330.73-28.25 328.53-28.58 326.33-28.9 323.23-28.9L323.23-28.9 320.73-28.9Q319.48-28.9 318.9-28.45 318.33-28 318.33-26.9L318.33-26.9 318.33-22.35 328.73-22.35 328.73-18.1 318.33-18.1 318.33 0ZM340.17 0L334.07 0 334.07-22.4 338.17-22.4 340.07-21.4Q341.37-22.1 342.87-22.5 344.37-22.9 346.67-22.9L346.67-22.9Q350.32-22.9 352.6-22.1 354.87-21.3 355.62-20.9L355.62-20.9 353.87-16.55Q353.27-16.85 351.9-17.32 350.52-17.8 348.67-18.2 346.82-18.6 344.62-18.6L344.62-18.6 344.07-18.6Q341.67-18.6 340.95-17.65 340.22-16.7 340.17-14.5L340.17-14.5 340.17 0ZM379.02 0L365.22 0Q361.87 0 360.25-1.35 358.62-2.7 358.62-5.75L358.62-5.75 358.62-16Q358.62-16.75 358.75-17.82 358.87-18.9 359.45-19.95 360.02-21 361.4-21.7 362.77-22.4 365.22-22.4L365.22-22.4 379.02-22.4Q381.52-22.4 382.87-21.7 384.22-21 384.8-19.95 385.37-18.9 385.5-17.82 385.62-16.75 385.62-16L385.62-16 385.62-6.4Q385.62-5.5 385.5-4.4 385.37-3.3 384.77-2.3 384.17-1.3 382.82-0.65 381.47 0 379.02 0L379.02 0ZM367.12-4.3L367.12-4.3 377.12-4.3Q379.57-4.3 379.57-6.3L379.57-6.3 379.57-16.1Q379.57-18.1 377.12-18.1L377.12-18.1 367.12-18.1Q364.72-18.1 364.72-16.1L364.72-16.1 364.72-6.3Q364.72-4.3 367.12-4.3ZM397.22 0L391.12 0 391.12-22.4 395.22-22.4 396.47-21.8Q397.92-22.05 400.02-22.23 402.12-22.4 405.02-22.4L405.02-22.4 407.52-22.4Q408.97-22.4 410.32-22.03 411.67-21.65 412.32-20.95L412.32-20.95Q413.62-21.6 415.92-22 418.22-22.4 421.92-22.4L421.92-22.4 424.42-22.4Q426.92-22.4 428.27-21.7 429.62-21 430.19-19.95 430.77-18.9 430.89-17.82 431.02-16.75 431.02-16L431.02-16 431.02 0 424.92 0 424.92-16.1Q424.92-18.1 422.52-18.1L422.52-18.1 415.52-18.1Q414.72-18.1 414.42-17.9 414.12-17.7 414.12-17L414.12-17 414.12 0 408.02 0 408.02-16.1Q408.02-18.1 405.62-18.1L405.62-18.1 398.72-18.1Q397.77-18.1 397.49-17.93 397.22-17.75 397.22-17L397.22-17 397.22 0ZM453.86 0L447.76 0 447.76-32.4 453.86-32.4 453.86-21.4Q455.96-21.8 458.91-22.1 461.86-22.4 465.66-22.4L465.66-22.4 468.16-22.4Q470.66-22.4 472.01-21.7 473.36-21 473.94-19.95 474.51-18.9 474.64-17.82 474.76-16.75 474.76-16L474.76-16 474.76 0 468.66 0 468.66-16.1Q468.66-18.1 466.26-18.1L466.26-18.1 455.36-18.1Q454.41-18.1 454.14-17.93 453.86-17.75 453.86-17L453.86-17 453.86 0ZM500.41 0L486.61 0Q483.26 0 481.64-1.35 480.01-2.7 480.01-5.75L480.01-5.75 480.01-16Q480.01-16.75 480.14-17.82 480.26-18.9 480.84-19.95 481.41-21 482.79-21.7 484.16-22.4 486.61-22.4L486.61-22.4 500.41-22.4Q502.91-22.4 504.26-21.7 505.61-21 506.19-19.95 506.76-18.9 506.89-17.82 507.01-16.75 507.01-16L507.01-16 507.01-6.4Q507.01-5.5 506.89-4.4 506.76-3.3 506.16-2.3 505.56-1.3 504.21-0.65 502.86 0 500.41 0L500.41 0ZM488.51-4.3L488.51-4.3 498.51-4.3Q500.96-4.3 500.96-6.3L500.96-6.3 500.96-16.1Q500.96-18.1 498.51-18.1L498.51-18.1 488.51-18.1Q486.11-18.1 486.11-16.1L486.11-16.1 486.11-6.3Q486.11-4.3 488.51-4.3ZM518.61 0L512.51 0 512.51-22.4 516.61-22.4 517.86-21.8Q519.31-22.05 521.41-22.23 523.51-22.4 526.41-22.4L526.41-22.4 528.91-22.4Q530.36-22.4 531.71-22.03 533.06-21.65 533.71-20.95L533.71-20.95Q535.01-21.6 537.31-22 539.61-22.4 543.31-22.4L543.31-22.4 545.81-22.4Q548.31-22.4 549.66-21.7 551.01-21 551.58-19.95 552.16-18.9 552.28-17.82 552.41-16.75 552.41-16L552.41-16 552.41 0 546.31 0 546.31-16.1Q546.31-18.1 543.91-18.1L543.91-18.1 536.91-18.1Q536.11-18.1 535.81-17.9 535.51-17.7 535.51-17L535.51-17 535.51 0 529.41 0 529.41-16.1Q529.41-18.1 527.01-18.1L527.01-18.1 520.11-18.1Q519.16-18.1 518.88-17.93 518.61-17.75 518.61-17L518.61-17 518.61 0ZM574.3 0L564.25 0Q561.75 0 560.4-0.65 559.05-1.3 558.48-2.3 557.9-3.3 557.78-4.4 557.65-5.5 557.65-6.4L557.65-6.4 557.65-16Q557.65-16.75 557.78-17.82 557.9-18.9 558.48-19.95 559.05-21 560.43-21.7 561.8-22.4 564.25-22.4L564.25-22.4 575-22.4Q578.3-22.4 580.18-21.78 582.05-21.15 582.83-19.75 583.61-18.35 583.61-16L583.61-16 583.61-8.6 574.86-8.6Q570.36-8.6 567.53-8.8 564.7-9 563.75-9.05L563.75-9.05 563.75-6.3Q563.7-4.3 566.15-4.3L566.15-4.3 568.7-4.3Q571.4-4.3 573.98-4.38 576.55-4.45 578.7-4.58 580.86-4.7 582.15-4.8L582.15-4.8 584.15-1.55Q584.15 0 574.3 0L574.3 0ZM563.75-16.1L563.75-12.9 577.5-12.9 577.5-16.1Q577.5-17.1 577.28-17.5 577.05-17.9 575.95-18 574.86-18.1 572.2-18.1L572.2-18.1 566.15-18.1Q563.75-18.1 563.75-16.1L563.75-16.1Z" opacity="1" transform="matrix(1,0,0,1,0,0)" fill="#729343" class="slogan-text-1" data-fill-palette-color="secondary" id="text-1"></path></svg></g></svg></g></svg></g></svg></g><g transform="matrix(1,0,0,1,36.672,0)"><svg viewBox="0 0 118.656 110.17740428401605" height="110.17740428401605" width="118.656"><g><svg xmlns="http://www.w3.org/2000/svg" xmlns:xlink="http://www.w3.org/1999/xlink" version="1.1" x="0" y="0" viewBox="0.9997987789598811 1 14.000402442080238 13" style="enable-background:new 0 0 16 16;" xml:space="preserve" height="110.17740428401605" width="118.656" class="icon-icon-0" data-fill-palette-color="accent" id="icon-0"><g fill="#729343" data-fill-palette-color="accent"><path d="M12.5 14h-3C9.224 14 9 13.776 9 13.5V10H7v3.5C7 13.776 6.776 14 6.5 14h-3C3.224 14 3 13.776 3 13.5V8H1.5C1.294 8 1.109 7.874 1.034 7.682 0.959 7.49 1.01 7.272 1.161 7.133l6.5-6c0.192-0.177 0.487-0.176 0.678 0l6.5 6c0.151 0.14 0.202 0.357 0.127 0.549S14.706 8 14.5 8H13v5.5C13 13.776 12.776 14 12.5 14zM10 13h2V7.5C12 7.224 12.224 7 12.5 7h0.721L8 2.181 2.779 7H3.5C3.776 7 4 7.224 4 7.5V13h2V9.5C6 9.224 6.224 9 6.5 9h3C9.776 9 10 9.224 10 9.5V13z" fill="#729343" data-fill-palette-color="accent"></path><path d="M12.5 6.15c-0.276 0-0.5-0.224-0.5-0.5V2h-1v1.81c0 0.276-0.224 0.5-0.5 0.5S10 4.086 10 3.81V1.5C10 1.224 10.224 1 10.5 1h2C12.776 1 13 1.224 13 1.5v4.15C13 5.926 12.776 6.15 12.5 6.15z" fill="#729343" data-fill-palette-color="accent"></path></g></svg></g></svg></g><g></g></svg></g></svg></g></svg></g></svg></g><defs></defs></svg><rect width="320" height="360" fill="none" stroke="none" visibility="hidden"></rect></g></svg></g></svg>